<svg width="26" height="26" viewBox="0 0 26 26" fill="none" xmlns="http://www.w3.org/2000/svg">
<path d="M13.6607 8.09035V9.8582L15.1923 8.97428L15.9958 10.3677L14.4642 11.25L15.9958 12.1339L15.1923 13.5257L13.6607 12.6418V14.4096H12.0535V12.6418L10.5219 13.5257L9.71834 12.1339L11.2499 11.25L9.71834 10.3661L10.5219 8.97428L12.0535 9.8582V8.09035H13.6607ZM21.2946 14.4643C21.188 14.4643 21.0858 14.5066 21.0105 14.582C20.9351 14.6573 20.8928 14.7595 20.8928 14.8661V15.6696C20.8928 15.8914 21.0728 16.0714 21.2946 16.0714H22.0982C22.2047 16.0714 22.3069 16.0291 22.3823 15.9537C22.4576 15.8784 22.4999 15.7762 22.4999 15.6696V14.8661C22.4999 14.7595 22.4576 14.6573 22.3823 14.582C22.3069 14.5066 22.2047 14.4643 22.0982 14.4643H21.2946ZM20.8928 18.0803C20.8928 17.9738 20.9351 17.8716 21.0105 17.7962C21.0858 17.7209 21.188 17.6786 21.2946 17.6786H22.0982C22.2047 17.6786 22.3069 17.7209 22.3823 17.7962C22.4576 17.8716 22.4999 17.9738 22.4999 18.0803V18.8839C22.4999 18.9905 22.4576 19.0927 22.3823 19.168C22.3069 19.2434 22.2047 19.2857 22.0982 19.2857H21.2946C21.188 19.2857 21.0858 19.2434 21.0105 19.168C20.9351 19.0927 20.8928 18.9905 20.8928 18.8839V18.0803ZM21.2946 20.8928C21.188 20.8928 21.0858 20.9352 21.0105 21.0105C20.9351 21.0859 20.8928 21.1881 20.8928 21.2946V22.0982C20.8928 22.32 21.0728 22.5 21.2946 22.5H22.0982C22.2047 22.5 22.3069 22.4577 22.3823 22.3823C22.4576 22.307 22.4999 22.2048 22.4999 22.0982V21.2946C22.4999 21.1881 22.4576 21.0859 22.3823 21.0105C22.3069 20.9352 22.2047 20.8928 22.0982 20.8928H21.2946ZM3.61602 14.4643C3.50946 14.4643 3.40726 14.5066 3.33191 14.582C3.25656 14.6573 3.21423 14.7595 3.21423 14.8661V15.6696C3.21423 15.8914 3.39423 16.0714 3.61602 16.0714H4.41959C4.52615 16.0714 4.62835 16.0291 4.7037 15.9537C4.77905 15.8784 4.82138 15.7762 4.82138 15.6696V14.8661C4.82138 14.7595 4.77905 14.6573 4.7037 14.582C4.62835 14.5066 4.52615 14.4643 4.41959 14.4643H3.61602ZM3.61602 17.6786C3.50946 17.6786 3.40726 17.7209 3.33191 17.7962C3.25656 17.8716 3.21423 17.9738 3.21423 18.0803V18.8839C3.21423 19.1057 3.39423 19.2857 3.61602 19.2857H4.41959C4.52615 19.2857 4.62835 19.2434 4.7037 19.168C4.77905 19.0927 4.82138 18.9905 4.82138 18.8839V18.0803C4.82138 17.9738 4.77905 17.8716 4.7037 17.7962C4.62835 17.7209 4.52615 17.6786 4.41959 17.6786H3.61602ZM3.21423 21.2946C3.21423 21.1881 3.25656 21.0859 3.33191 21.0105C3.40726 20.9352 3.50946 20.8928 3.61602 20.8928H4.41959C4.52615 20.8928 4.62835 20.9352 4.7037 21.0105C4.77905 21.0859 4.82138 21.1881 4.82138 21.2946V22.0982C4.82138 22.2048 4.77905 22.307 4.7037 22.3823C4.62835 22.4577 4.52615 22.5 4.41959 22.5H3.61602C3.50946 22.5 3.40726 22.4577 3.33191 22.3823C3.25656 22.307 3.21423 22.2048 3.21423 22.0982V21.2946Z" fill="white"/>
<path d="M8.03571 1.60714C8.03571 1.1809 8.20504 0.772119 8.50644 0.470721C8.80783 0.169324 9.21662 0 9.64286 0L16.0714 0C16.4977 0 16.9065 0.169324 17.2078 0.470721C17.5092 0.772119 17.6786 1.1809 17.6786 1.60714V3.21429C18.1048 3.21429 18.5136 3.38361 18.815 3.68501C19.1164 3.9864 19.2857 4.39519 19.2857 4.82143V11.25H24.1071C24.5334 11.25 24.9422 11.4193 25.2436 11.7207C25.545 12.0221 25.7143 12.4309 25.7143 12.8571V24.1071C25.7143 24.5334 25.545 24.9422 25.2436 25.2436C24.9422 25.545 24.5334 25.7143 24.1071 25.7143H1.60714C1.1809 25.7143 0.772119 25.545 0.470721 25.2436C0.169324 24.9422 0 24.5334 0 24.1071V12.8571C0 12.4309 0.169324 12.0221 0.470721 11.7207C0.772119 11.4193 1.1809 11.25 1.60714 11.25H6.42857V4.82143C6.42857 4.39519 6.5979 3.9864 6.89929 3.68501C7.20069 3.38361 7.60947 3.21429 8.03571 3.21429V1.60714ZM11.25 24.1071H14.4643V19.2857H11.25V24.1071ZM16.0714 24.1071H17.6786V4.82143H8.03571V24.1071H9.64286V19.2857C9.64286 18.8595 9.81218 18.4507 10.1136 18.1493C10.415 17.8479 10.8238 17.6786 11.25 17.6786H14.4643C14.8905 17.6786 15.2993 17.8479 15.6007 18.1493C15.9021 18.4507 16.0714 18.8595 16.0714 19.2857V24.1071ZM16.0714 1.60714H9.64286V3.21429H16.0714V1.60714ZM19.2857 12.8571V24.1071H24.1071V12.8571H19.2857ZM6.42857 24.1071V12.8571H1.60714V24.1071H6.42857Z" fill="white"/>
</svg>
