<svg width="35" height="29" viewBox="0 0 35 29" fill="none" xmlns="http://www.w3.org/2000/svg">
<path d="M6.53336 29V25.5882H8.98669L12.015 14.3721C12.2195 13.6328 12.5967 13.0426 13.1466 12.6014C13.6966 12.1601 14.3033 11.94 14.9667 11.9412H19.5667C20.2311 11.9412 20.8383 12.1618 21.3883 12.6031C21.9382 13.0443 22.3149 13.634 22.5184 14.3721L25.5467 25.5882H28V29H6.53336ZM12.2067 25.5882H22.3267L19.5667 15.3529H14.9667L12.2067 25.5882ZM15.7334 8.52941V0H18.8V8.52941H15.7334ZM24.8567 12.7515L22.6717 10.3206L28.115 4.30735L30.2617 6.69559L24.8567 12.7515ZM26.4667 20.4706V17.0588H34.1334V20.4706H26.4667ZM9.67669 12.7515L4.27169 6.69559L6.41836 4.30735L11.8617 10.3206L9.67669 12.7515ZM0.400024 20.4706V17.0588H8.06669V20.4706H0.400024Z" fill="white"/>
</svg>
