<svg width="100" height="100" viewBox="0 0 100 100" fill="none" xmlns="http://www.w3.org/2000/svg">
<path d="M50.0002 3.52717C59.1916 3.52717 68.1766 6.25347 75.819 11.3598C83.4613 16.4664 89.4177 23.7239 92.9352 32.2158C96.4527 40.7074 97.3718 50.0519 95.5808 59.0667C93.7873 68.082 89.3606 76.3615 82.8612 82.8599C76.362 89.3608 68.0812 93.7875 59.0664 95.5785C50.0516 97.372 40.7076 96.4529 32.2157 92.9354C23.724 89.4179 16.466 83.461 11.3594 75.8199C6.25307 68.1764 3.52752 59.1911 3.52752 49.9997C3.54118 37.6788 8.44182 25.8664 17.1543 17.1539C25.8666 8.4417 37.679 3.54108 50.0002 3.52717ZM50.0002 0C40.1109 0 30.444 2.93223 22.2217 8.42631C13.999 13.9204 7.59052 21.7294 3.80599 30.8657C0.0216991 40.002 -0.968468 50.0554 0.960688 59.7543C2.89009 69.4532 7.65212 78.3637 14.6446 85.3564C21.6374 92.3467 30.5464 97.1087 40.2456 99.0388C49.9445 100.969 59.998 99.9778 69.1342 96.1945C78.2705 92.4088 86.0796 85.9998 91.5739 77.7774C97.0688 69.5551 100 59.8889 100 49.9997C100 36.7391 94.7312 24.0212 85.3555 14.6445C75.9787 5.26752 63.2611 0 50.0002 0Z" fill="#8667F2"/>
<path d="M62.3387 38.2902C62.3392 40.7301 61.6164 43.1156 60.261 45.1446C58.906 47.1733 56.9793 48.7547 54.7252 49.6887C52.4711 50.6228 49.9908 50.8674 47.5976 50.3917C45.2046 49.916 43.0062 48.741 41.2807 47.0161C39.5553 45.2909 38.38 43.0932 37.9038 40.7003C37.4276 38.3073 37.6718 35.8267 38.6056 33.5724C39.5391 31.3181 41.1203 29.3909 43.149 28.0353C45.1778 26.6798 47.5628 25.9564 50.0027 25.9564C53.274 25.9564 56.4114 27.2556 58.7249 29.5685C61.0383 31.8815 62.3382 35.0189 62.3387 38.2902Z" fill="#8667F2"/>
<path d="M73.4402 74.0612C73.4402 67.846 70.9711 61.8839 66.5757 57.4886C62.1803 53.0932 56.2189 50.6233 50.0027 50.6233C43.7867 50.6233 37.8254 53.0932 33.43 57.4886C29.0346 61.8839 26.5654 67.846 26.5654 74.0612H73.4402Z" fill="#8667F2"/>
</svg>
