<svg width="48" height="48" viewBox="0 0 48 48" fill="none" xmlns="http://www.w3.org/2000/svg">
<path d="M24 1.59995L24.7168 0.16955C24.4943 0.0580575 24.2489 3.8147e-06 24 3.8147e-06C23.7511 3.8147e-06 23.5057 0.0580575 23.2832 0.16955L24 1.59995ZM4.8 11.2L4.0832 9.76956C3.81777 9.90257 3.59458 10.1068 3.4386 10.3594C3.28263 10.612 3.20001 10.9031 3.2 11.2H4.8ZM43.2 11.2H44.8C44.8 10.9031 44.7174 10.612 44.5614 10.3594C44.4054 10.1068 44.1822 9.90257 43.9168 9.76956L43.2 11.2ZM17.6 33.6V32H16V33.6H17.6ZM30.4 33.6H32V32H30.4V33.6ZM0 48H48V44.8H0V48ZM23.2832 0.16955L4.0832 9.76956L5.5168 12.6304L24.7168 3.03035L23.2832 0.16955ZM43.9168 9.76956L24.7168 0.16955L23.2832 3.03035L42.4832 12.6304L43.9168 9.76956ZM22.4 9.59996V17.6H25.6V9.59996H22.4ZM22.4 17.6V25.6H25.6V17.6H22.4ZM16 19.2H24V16H16V19.2ZM24 19.2H32V16H24V19.2ZM3.2 11.2V46.4H6.4V11.2H3.2ZM41.6 11.2V46.4H44.8V11.2H41.6ZM19.2 46.4V33.6H16V46.4H19.2ZM17.6 35.2H30.4V32H17.6V35.2ZM28.8 33.6V46.4H32V33.6H28.8Z" fill="#8667F2"/>
</svg>
