<svg width="265" height="181" viewBox="0 0 265 181" fill="none" xmlns="http://www.w3.org/2000/svg">
<path d="M221.417 27.8315L200.975 28.0269C200.014 23.3851 196.785 11.2059 199.693 7.88393C199.825 6.63362 200.444 5.48163 201.42 4.66777C202.397 3.85392 203.655 3.44092 204.934 3.51474C208.103 -1.35205 213.38 -0.62133 216.947 2.41819C220.537 3.63365 221.89 5.793 221.417 8.72333C224.076 11.0068 224.566 13.785 223.373 16.9474L221.417 27.8315Z" fill="#2F2E41"/>
<path d="M219.449 40.1886L204.7 38.1848L201.751 33.9544C205.814 31.3096 207.252 27.6155 205.381 22.5992L215.592 22.3765C215.113 26.8437 216.619 30.3024 220.811 32.3958L219.449 40.1886Z" fill="#FFB9B9"/>
<path d="M201.213 170.726L200.65 178.291C200.624 178.633 200.673 178.977 200.794 179.299C200.915 179.622 201.105 179.915 201.351 180.159C201.597 180.403 201.893 180.593 202.22 180.716C202.547 180.839 202.896 180.891 203.246 180.871L207.206 180.635C207.389 180.624 207.568 180.574 207.729 180.487C207.891 180.401 208.031 180.281 208.14 180.135C208.248 179.99 208.323 179.823 208.358 179.646C208.394 179.469 208.389 179.286 208.344 179.111L206.146 170.484L201.213 170.726Z" fill="#E6E6E6"/>
<path d="M214.034 170.484L211.836 179.111C211.791 179.286 211.786 179.469 211.822 179.646C211.857 179.823 211.932 179.99 212.041 180.135C212.149 180.281 212.289 180.401 212.451 180.487C212.612 180.574 212.791 180.624 212.974 180.635L216.934 180.87C217.284 180.891 217.633 180.839 217.96 180.716C218.287 180.593 218.583 180.403 218.829 180.159C219.075 179.915 219.265 179.621 219.386 179.299C219.507 178.977 219.556 178.633 219.531 178.291L218.967 170.726L214.034 170.484Z" fill="#E6E6E6"/>
<path d="M219.222 171.776L213.878 171.25L208.558 115.445L206.547 171.07L201.297 170.885L192.448 93.8476H226.256L219.222 171.776Z" fill="#6C63FF"/>
<path d="M211.054 26.1616C216.693 26.1616 221.264 21.6758 221.264 16.1423C221.264 10.6087 216.693 6.12292 211.054 6.12292C205.415 6.12292 200.843 10.6087 200.843 16.1423C200.843 21.6758 205.415 26.1616 211.054 26.1616Z" fill="#FFB9B9"/>
<path d="M231.248 95.629L189.952 96.0743C196.08 73.1805 199.746 51.9142 193.355 37.2942L203.566 32.3959C208.489 37.4348 213.972 36.9153 219.903 31.9505L229.66 34.3997C227.989 53.5716 228.738 74.1049 231.248 95.629Z" fill="#6C63FF"/>
<path d="M178.606 72.0279L204.247 82.0472L209.979 83.7016C210.236 83.7756 210.505 83.798 210.77 83.7674C211.035 83.7368 211.292 83.6539 211.524 83.5236C211.756 83.3933 211.959 83.2184 212.12 83.0093C212.281 82.8001 212.398 82.5612 212.463 82.3068C212.576 81.8606 212.525 81.3894 212.319 80.9767C212.112 80.564 211.763 80.2364 211.334 80.0521L205.381 78.2621L187.456 68.0201L191.2 58.3348L183.371 54.2157L178.606 72.0279Z" fill="#FFB9B9"/>
<path d="M178.833 53.7704C183.712 55.6379 187.592 58.825 190.632 63.1218L200.162 49.54L193.355 37.2942L178.833 53.7704Z" fill="#6C63FF"/>
<path d="M222.562 14.5184C218.418 13.4707 214.343 13.3268 210.382 14.6558C207.859 15.8549 204.829 15.7444 201.46 14.7564V4.76015L219.651 5.23616L222.562 14.5184Z" fill="#2F2E41"/>
<path d="M204.162 60.354C203.36 60.3549 202.591 60.6678 202.024 61.2242C201.457 61.7805 201.138 62.5348 201.137 63.3215L202.331 87.8409C202.332 88.6276 202.651 89.3819 203.218 89.9382C203.785 90.4945 204.553 90.8075 205.355 90.8084H219.003C219.805 90.8075 220.573 90.4945 221.14 89.9382C221.707 89.3819 222.026 88.6276 222.027 87.8409L223.221 63.3215C223.22 62.5348 222.901 61.7805 222.334 61.2242C221.767 60.6678 220.998 60.3549 220.197 60.354H204.162Z" fill="#3F3D56"/>
<path d="M242.884 70.1755L220.535 78.9077L218.849 79.5666C218.795 79.5871 218.741 79.6047 218.685 79.6222L213.036 81.2533C212.313 81.4612 211.314 80.5066 210.729 79.8477C210.439 79.5302 210.275 79.1214 210.266 78.6953C210.258 78.2693 210.405 77.8543 210.681 77.5256C210.759 77.4373 210.845 77.3559 210.938 77.2825C211.155 77.1163 211.412 77.0056 211.684 76.9604L217.327 75.8711C217.529 75.8321 217.724 75.7609 217.903 75.6603L220.535 74.1551L234.2 66.3483C234.58 66.1315 234.869 65.7894 235.016 65.3829C235.163 64.9764 235.158 64.5319 235.002 64.1286L232.394 57.3789C232.234 56.9659 232.233 56.5099 232.391 56.096C232.548 55.6822 232.854 55.3388 233.251 55.1299L237.572 52.8576C237.819 52.7275 238.093 52.6541 238.373 52.6429C238.653 52.6318 238.932 52.6831 239.188 52.793C239.445 52.903 239.673 53.0687 239.856 53.2777C240.038 53.4867 240.169 53.7335 240.24 53.9996L243.991 68.0203C244.106 68.4503 244.057 68.9067 243.853 69.3037C243.65 69.7007 243.305 70.0108 242.884 70.1755Z" fill="#FFB9B9"/>
<path d="M244.182 51.3212C239.304 53.1887 235.424 56.3759 232.383 60.6726L222.853 47.0909L229.66 34.3997L244.182 51.3212Z" fill="#6C63FF"/>
<path d="M217.849 25.06C213.382 26.8832 208.698 26.8091 203.823 25.06C205.242 22.6839 203.121 20.8231 202.033 18.4245L220.236 17.8937C218.844 19.9774 216.79 22.4392 217.849 25.06Z" fill="white"/>
<path d="M220.044 18.2902L219.832 18.0831L220.131 17.7903L221.914 15.7487L222.14 15.939L220.35 17.9888L220.044 18.2902Z" fill="white"/>
<path d="M200.785 17.0491L200.594 17.2742L202.385 18.7383L202.576 18.5133L200.785 17.0491Z" fill="white"/>
<path d="M220.558 20.0117L217.424 24.8429L217.676 25.0002L220.81 20.169L220.558 20.0117Z" fill="white"/>
<path d="M201.114 20.0114L200.862 20.1686L203.996 25.0003L204.248 24.843L201.114 20.0114Z" fill="white"/>
<path d="M221.132 73.7409V79.046L219.25 79.7814C219.19 79.8043 219.13 79.8239 219.066 79.8435L212.761 81.6642C211.955 81.8962 210.839 80.8307 210.186 80.0952C209.862 79.7408 209.679 79.2844 209.67 78.8089C209.66 78.3333 209.824 77.8701 210.132 77.5031C210.22 77.4046 210.315 77.3138 210.419 77.2318C210.662 77.0462 210.948 76.9227 211.252 76.8723L217.551 75.6563C217.777 75.6128 217.994 75.5333 218.194 75.421L221.132 73.7409Z" fill="white"/>
<path d="M223.859 54.8183H222.781C222.781 39.8516 219.64 29.4215 216.58 29.4215L216.31 28.3633C219.055 28.3633 220.805 32.7043 221.789 36.346C223.124 41.2829 223.859 47.8432 223.859 54.8183Z" fill="#3F3D56"/>
<path d="M199.056 51.1147H197.977C197.977 37.4075 201.14 28.8925 205.796 28.8925L205.526 29.9507C202.306 29.9507 199.056 36.4948 199.056 51.1147Z" fill="#3F3D56"/>
<path d="M223.32 57.7284C224.809 57.7284 226.016 56.544 226.016 55.0829C226.016 53.6218 224.809 52.4374 223.32 52.4374C221.831 52.4374 220.624 53.6218 220.624 55.0829C220.624 56.544 221.831 57.7284 223.32 57.7284Z" fill="#3F3D56"/>
<path d="M194.742 57.4638H193.664C193.664 53.6711 195.841 50.5855 198.517 50.5855V51.6437C196.435 51.6437 194.742 54.2546 194.742 57.4638Z" fill="#3F3D56"/>
<path d="M203.369 57.4638H202.291C202.291 54.2546 200.598 51.6437 198.517 51.6437V50.5855C201.192 50.5855 203.369 53.6711 203.369 57.4638Z" fill="#3F3D56"/>
<path d="M202.83 58.7866C203.426 58.7866 203.909 58.3128 203.909 57.7284C203.909 57.144 203.426 56.6702 202.83 56.6702C202.235 56.6702 201.752 57.144 201.752 57.7284C201.752 58.3128 202.235 58.7866 202.83 58.7866Z" fill="#3F3D56"/>
<path d="M194.203 58.7866C194.799 58.7866 195.281 58.3128 195.281 57.7284C195.281 57.144 194.799 56.6702 194.203 56.6702C193.607 56.6702 193.125 57.144 193.125 57.7284C193.125 58.3128 193.607 58.7866 194.203 58.7866Z" fill="#3F3D56"/>
<path d="M64.2418 22.1665L45.302 25.3137C44.8342 25.392 44.3533 25.2973 43.9525 25.0478C43.5517 24.7982 43.2595 24.4117 43.1325 23.963C41.7641 19.1168 38.9032 12.7948 41.6808 9.62115C41.8223 8.28602 42.4832 7.05588 43.5257 6.18681C44.5683 5.31775 45.9123 4.87672 47.2779 4.95554C50.6613 -0.241411 56.2969 0.538879 60.1059 3.78461C63.9393 5.08253 65.3845 7.38837 64.8791 10.5175C66.5352 11.9399 67.4034 13.5421 67.5864 15.3006C67.6732 16.2791 67.5464 17.2646 67.2142 18.1913C66.8821 19.1179 66.3524 19.9644 65.6605 20.6742L64.2418 22.1665Z" fill="#2F2E41"/>
<path d="M61.2971 36.7977L46.6146 35.9503C48.0535 32.7095 48.6283 29.5889 48.0541 26.6278H58.994C58.9692 28.9013 60.1222 32.8341 61.2971 36.7977Z" fill="#9F616A"/>
<path d="M43.6234 169.926L43.0212 178.005C42.9939 178.37 43.0467 178.737 43.1759 179.081C43.3051 179.425 43.5077 179.738 43.7703 179.999C44.0329 180.26 44.3492 180.463 44.6982 180.594C45.0471 180.725 45.4206 180.781 45.7936 180.759L50.0223 180.508C50.2182 180.496 50.4092 180.442 50.5815 180.35C50.7538 180.258 50.9033 180.129 51.0193 179.974C51.1354 179.819 51.2152 179.64 51.253 179.451C51.2908 179.262 51.2857 179.067 51.2381 178.88L48.8908 169.668L43.6234 169.926Z" fill="#E6E6E6"/>
<path d="M57.3136 169.668L54.9663 178.88C54.9187 179.067 54.9137 179.262 54.9515 179.451C54.9893 179.64 55.0691 179.819 55.1851 179.974C55.3012 180.129 55.4507 180.258 55.623 180.35C55.7953 180.442 55.9862 180.496 56.1822 180.508L60.4109 180.759C60.7838 180.781 61.1573 180.725 61.5063 180.594C61.8552 180.463 62.1716 180.26 62.4342 179.999C62.6967 179.738 62.8994 179.425 63.0286 179.081C63.1578 178.737 63.2105 178.37 63.1832 178.005L62.581 169.926L57.3136 169.668Z" fill="#E6E6E6"/>
<path d="M62.8539 171.048L57.1475 170.486L51.4661 110.895L49.319 170.294L43.7125 170.096L34.2629 87.8326H70.3653L62.8539 171.048Z" fill="#6C63FF"/>
<path d="M53.8126 30.0572C59.8344 30.0572 64.716 25.2671 64.716 19.3581C64.716 13.4492 59.8344 8.65909 53.8126 8.65909C47.7908 8.65909 42.9092 13.4492 42.9092 19.3581C42.9092 25.2671 47.7908 30.0572 53.8126 30.0572Z" fill="#9F616A"/>
<path d="M66.1014 14.2471C61.676 13.4908 57.3251 13.387 53.0956 14.3462C50.4014 15.2117 47.1659 15.1319 43.5676 14.4188V7.20386L62.9933 7.54743L66.1014 14.2471Z" fill="#2F2E41"/>
<path d="M61.069 27.9428C56.299 29.8897 51.2975 29.8106 46.0915 27.9428C47.6064 25.4056 45.342 23.4184 44.1795 20.8572L63.6183 20.2903C62.1318 22.5153 59.9383 25.1441 61.069 27.9428Z" fill="white"/>
<path d="M42.8411 19.396L42.6499 19.6211L44.5619 21.1845L44.753 20.9594L42.8411 19.396Z" fill="white"/>
<path d="M63.9706 22.5571L60.6237 27.7161L60.8755 27.8734L64.2224 22.7144L63.9706 22.5571Z" fill="white"/>
<path d="M43.1896 22.5569L42.9378 22.7141L46.2838 27.8737L46.5357 27.7164L43.1896 22.5569Z" fill="white"/>
<path d="M33.0836 68.155L24.7347 63.07L31.8548 42.6074C32.649 40.4959 34.17 38.723 36.155 37.5954L38.5536 36.2328L38.7621 56.8757L33.0836 68.155Z" fill="#6C63FF"/>
<path d="M69.1713 78.0931L67.9361 67.7116C67.8701 62.2319 68.8202 56.9341 71.0855 52.0526L72.2371 36.7977L59.5698 31.7128C59.5309 31.9661 59.4979 32.2192 59.4609 32.4725L53.524 35.3853L47.7341 34.094L47.7662 32.2778L36.2504 37.3628C40.0587 54.7358 37.9816 72.7769 31.4327 94.0866L46.6037 98.1571L46.7298 91.009L60.2504 90.0614C60.3896 92.3805 60.5016 94.6584 60.5665 96.8859C68.1958 99.642 68.4578 99.5963 75.4091 95.6501C72.6408 89.939 70.449 83.9961 69.1713 78.0931Z" fill="#6C63FF"/>
<path d="M88.647 65.6124L80.8739 63.07L68.4404 48.8669L72.237 36.7979L89.5106 60.5277L88.647 65.6124Z" fill="#6C63FF"/>
<path d="M64.2862 76.6082C64.4133 77.1559 64.7567 77.6317 65.2408 77.9314C65.725 78.2311 66.3106 78.3301 66.869 78.2068L73.4674 76.7405L72.5137 72.6077L65.9152 74.0737C65.3567 74.1979 64.8714 74.5347 64.5659 75.01C64.2604 75.4853 64.1597 76.0602 64.2862 76.6082Z" fill="#E6E6E6"/>
<path d="M70.2219 71.8274L73.9645 78.6074C80.2595 76.8846 85.7151 71.4533 90.9502 65.0475L89.5107 60.5275L80.586 62.7875L70.2219 71.8274Z" fill="#6C63FF"/>
<path d="M21.4238 50.5603L28.6087 51.8192L45.0312 74.7323L36.3068 72.7179L21.4238 50.5603Z" fill="#E6E6E6"/>
<path d="M20.1495 50.2798C20.04 50.2815 19.933 50.3119 19.8396 50.368C19.7462 50.4241 19.6699 50.5038 19.6186 50.5988C19.5674 50.6937 19.5431 50.8004 19.5483 50.9078C19.5534 51.0151 19.5879 51.1191 19.6481 51.2089L34.9988 74.0631C35.0844 74.1909 35.2167 74.2816 35.3685 74.3165L42.5107 75.9655C42.6311 75.9933 42.7573 75.9845 42.8725 75.9403C42.9878 75.8961 43.0866 75.8186 43.1559 75.718C43.2252 75.6175 43.2617 75.4986 43.2605 75.3772C43.2594 75.2558 43.2206 75.1377 43.1495 75.0384L26.2953 51.5231C26.2496 51.459 26.1915 51.4044 26.1243 51.3624C26.0571 51.3204 25.982 51.2918 25.9036 51.2782L20.2646 50.2901C20.2266 50.2834 20.1881 50.2799 20.1495 50.2798Z" fill="#3F3D56"/>
<path d="M29.7253 66.6204L30.152 70.8372L36.8843 70.1814C37.4541 70.1259 37.9782 69.8506 38.3411 69.4159C38.7041 68.9813 38.8762 68.423 38.8197 67.8638C38.7631 67.3046 38.4825 66.7904 38.0396 66.4342C37.5966 66.0781 37.0276 65.9092 36.4578 65.9646L29.7253 66.6204Z" fill="#E6E6E6"/>
<path d="M23.8711 66.132C23.8809 67.5698 24.4694 68.9456 25.5084 69.9595C26.5474 70.9734 27.9527 71.5433 29.418 71.5449H30.525L31.3309 64.9547L24.6581 62.5974L23.8711 66.132Z" fill="#6C63FF"/>
<path d="M63.0864 21.0193L62.8754 20.8123L63.1941 20.4996L65.0984 18.3189L65.3249 18.5092L63.4129 20.6981L63.0864 21.0193Z" fill="white"/>
<path d="M101.166 180.122H163.834V105.533C163.834 101.583 159.87 98.3702 154.997 98.3702H110.003C105.13 98.3702 101.166 101.583 101.166 105.533V180.122Z" fill="#E6E6E6"/>
<path d="M105.94 177.037H159.06V113.814C159.06 110.467 155.699 107.743 151.569 107.743H113.431C109.301 107.743 105.94 110.467 105.94 113.814V177.037Z" fill="white"/>
<path d="M100.692 92.5653C99.1432 92.5653 97.8829 93.5868 97.8829 94.8422V101.414C97.8829 102.67 99.1432 103.691 100.692 103.691H164.308C165.857 103.691 167.117 102.67 167.117 101.414V94.8422C167.117 93.5868 165.857 92.5653 164.308 92.5653H100.692Z" fill="#3F3D56"/>
<path d="M113.753 168.93C113.026 168.932 112.329 169.217 111.815 169.721C111.301 170.226 111.011 170.91 111.009 171.623C111.011 172.337 111.301 173.021 111.815 173.525C112.329 174.03 113.026 174.314 113.753 174.316H118.89V168.93H113.753Z" fill="#3F3D56"/>
<path d="M123.605 168.93H118.609V174.316H123.605C124.333 174.314 125.029 174.03 125.544 173.525C126.058 173.021 126.348 172.337 126.35 171.623C126.348 170.91 126.058 170.226 125.544 169.721C125.029 169.217 124.333 168.932 123.605 168.93Z" fill="#6C63FF"/>
<path opacity="0.2" d="M125.396 169.59C125.829 170.077 126.068 170.701 126.068 171.347C126.066 172.061 125.776 172.745 125.262 173.249C124.748 173.754 124.051 174.038 123.324 174.04H118.609V174.316H123.605C124.333 174.314 125.029 174.03 125.544 173.525C126.058 173.021 126.348 172.337 126.35 171.623C126.349 171.237 126.264 170.855 126.099 170.505C125.935 170.154 125.695 169.842 125.396 169.59Z" fill="black"/>
<path d="M136.935 128.366C136.435 127.848 135.746 127.545 135.019 127.524C134.292 127.503 133.586 127.765 133.055 128.253C132.528 128.744 132.219 129.42 132.198 130.134C132.176 130.847 132.444 131.54 132.941 132.06L136.465 135.728L140.459 132.034L136.935 128.366Z" fill="#3F3D56"/>
<path d="M143.693 135.4L140.266 131.833L136.271 135.527L139.699 139.095C140.199 139.613 140.888 139.915 141.615 139.936C142.342 139.957 143.048 139.695 143.578 139.207C144.106 138.716 144.414 138.04 144.436 137.327C144.457 136.614 144.19 135.921 143.693 135.4Z" fill="#6C63FF"/>
<path opacity="0.2" d="M144.432 137.131C144.368 137.775 144.069 138.373 143.59 138.817C143.059 139.305 142.354 139.567 141.627 139.546C140.9 139.525 140.211 139.222 139.71 138.704L136.476 135.338L136.271 135.527L139.699 139.095C140.199 139.613 140.888 139.915 141.615 139.936C142.342 139.957 143.048 139.695 143.578 139.207C143.864 138.942 144.089 138.619 144.236 138.261C144.383 137.903 144.45 137.517 144.432 137.131Z" fill="black"/>
<path d="M122.312 136.858C121.812 136.34 121.123 136.037 120.396 136.016C119.669 135.995 118.963 136.257 118.433 136.745C117.905 137.236 117.597 137.912 117.575 138.626C117.554 139.339 117.821 140.032 118.318 140.552L121.842 144.22L125.836 140.526L122.312 136.858Z" fill="#3F3D56"/>
<path d="M129.07 143.892L125.643 140.325L121.649 144.019L125.076 147.587C125.576 148.105 126.265 148.407 126.992 148.428C127.719 148.449 128.425 148.187 128.956 147.699C129.483 147.208 129.792 146.532 129.813 145.819C129.834 145.106 129.567 144.413 129.07 143.892Z" fill="#6C63FF"/>
<path opacity="0.2" d="M129.809 145.624C129.745 146.267 129.446 146.865 128.967 147.309C128.437 147.797 127.731 148.059 127.004 148.038C126.277 148.017 125.588 147.714 125.088 147.196L121.854 143.83L121.649 144.019L125.076 147.587C125.576 148.105 126.265 148.407 126.992 148.428C127.719 148.449 128.425 148.187 128.956 147.699C129.242 147.434 129.466 147.111 129.613 146.753C129.761 146.395 129.828 146.009 129.809 145.624Z" fill="black"/>
<path d="M136.935 144.764C136.435 144.246 135.746 143.944 135.019 143.923C134.292 143.902 133.586 144.164 133.055 144.652C132.528 145.143 132.219 145.819 132.198 146.532C132.176 147.245 132.444 147.938 132.941 148.459L136.465 152.127L140.459 148.432L136.935 144.764Z" fill="#3F3D56"/>
<path d="M143.693 151.799L140.266 148.231L136.271 151.926L139.699 155.493C140.199 156.011 140.888 156.314 141.615 156.335C142.342 156.356 143.048 156.094 143.578 155.606C144.106 155.115 144.414 154.439 144.436 153.725C144.457 153.012 144.19 152.32 143.693 151.799Z" fill="#6C63FF"/>
<path opacity="0.2" d="M144.432 153.53C144.368 154.173 144.069 154.772 143.59 155.215C143.059 155.703 142.354 155.965 141.627 155.944C140.9 155.923 140.211 155.621 139.71 155.103L136.476 151.736L136.271 151.926L139.699 155.493C140.199 156.011 140.888 156.314 141.615 156.335C142.342 156.356 143.048 156.094 143.578 155.606C143.864 155.34 144.089 155.017 144.236 154.659C144.383 154.301 144.45 153.916 144.432 153.53Z" fill="black"/>
<path d="M145.856 161.592C146.377 161.095 146.677 160.415 146.69 159.702C146.702 158.988 146.427 158.299 145.923 157.784C145.416 157.272 144.724 156.978 143.997 156.966C143.269 156.953 142.567 157.224 142.042 157.718L138.347 161.22L142.161 165.094L145.856 161.592Z" fill="#3F3D56"/>
<path d="M138.769 168.308L142.363 164.902L138.55 161.028L134.956 164.434C134.434 164.932 134.134 165.611 134.122 166.325C134.109 167.038 134.385 167.728 134.889 168.242C135.395 168.754 136.088 169.048 136.815 169.061C137.542 169.073 138.245 168.803 138.769 168.308Z" fill="#6C63FF"/>
<path opacity="0.2" d="M137.014 169.055C136.358 169 135.745 168.713 135.287 168.249C134.783 167.734 134.507 167.045 134.52 166.331C134.533 165.618 134.832 164.938 135.354 164.441L138.745 161.227L138.55 161.028L134.956 164.434C134.434 164.932 134.134 165.611 134.122 166.325C134.109 167.038 134.385 167.728 134.889 168.242C135.163 168.52 135.494 168.736 135.861 168.876C136.228 169.016 136.621 169.077 137.014 169.055Z" fill="black"/>
<path d="M126.16 153.1C126.681 152.603 126.981 151.923 126.994 151.21C127.006 150.496 126.731 149.807 126.227 149.292C125.72 148.78 125.028 148.486 124.301 148.474C123.574 148.461 122.871 148.732 122.346 149.226L118.651 152.728L122.465 156.602L126.16 153.1Z" fill="#3F3D56"/>
<path d="M119.073 159.816L122.667 156.41L118.854 152.536L115.26 155.942C114.738 156.439 114.439 157.119 114.426 157.833C114.413 158.546 114.689 159.235 115.193 159.75C115.699 160.262 116.392 160.556 117.119 160.569C117.846 160.581 118.549 160.311 119.073 159.816Z" fill="#6C63FF"/>
<path opacity="0.2" d="M117.318 160.563C116.662 160.508 116.049 160.221 115.591 159.757C115.087 159.242 114.811 158.553 114.824 157.839C114.837 157.126 115.136 156.446 115.658 155.949L119.049 152.735L118.854 152.536L115.26 155.942C114.738 156.439 114.439 157.119 114.426 157.833C114.413 158.546 114.689 159.235 115.193 159.75C115.467 160.028 115.798 160.244 116.165 160.384C116.532 160.524 116.925 160.585 117.318 160.563Z" fill="black"/>
<path d="M154.212 142.851C154.733 142.354 155.033 141.674 155.046 140.961C155.058 140.247 154.783 139.558 154.279 139.043C153.772 138.531 153.08 138.237 152.352 138.225C151.625 138.212 150.923 138.483 150.398 138.977L146.703 142.479L150.516 146.353L154.212 142.851Z" fill="#3F3D56"/>
<path d="M147.125 149.567L150.719 146.161L146.906 142.287L143.312 145.693C142.79 146.19 142.49 146.87 142.478 147.584C142.465 148.297 142.741 148.986 143.244 149.501C143.751 150.013 144.444 150.307 145.171 150.32C145.898 150.332 146.601 150.062 147.125 149.567Z" fill="#6C63FF"/>
<path opacity="0.2" d="M145.37 150.314C144.714 150.258 144.1 149.972 143.642 149.508C143.139 148.993 142.863 148.304 142.876 147.59C142.888 146.877 143.188 146.197 143.71 145.7L147.101 142.486L146.906 142.287L143.312 145.693C142.79 146.19 142.49 146.87 142.478 147.584C142.465 148.297 142.741 148.986 143.244 149.501C143.518 149.779 143.85 149.995 144.217 150.135C144.584 150.275 144.977 150.336 145.37 150.314Z" fill="black"/>
<path d="M147.977 164.091C147.476 163.573 146.787 163.271 146.06 163.25C145.334 163.229 144.628 163.491 144.097 163.979C143.569 164.47 143.261 165.146 143.24 165.859C143.218 166.572 143.485 167.265 143.982 167.785L147.506 171.454L151.5 167.759L147.977 164.091Z" fill="#3F3D56"/>
<path d="M154.735 171.126L151.307 167.558L147.313 171.253L150.74 174.82C151.241 175.338 151.93 175.64 152.657 175.662C153.383 175.683 154.089 175.42 154.62 174.933C155.148 174.442 155.456 173.766 155.477 173.052C155.499 172.339 155.232 171.646 154.735 171.126Z" fill="#6C63FF"/>
<path opacity="0.2" d="M155.474 172.857C155.41 173.5 155.11 174.098 154.632 174.542C154.101 175.03 153.395 175.292 152.668 175.271C151.941 175.25 151.252 174.947 150.752 174.43L147.518 171.063L147.313 171.253L150.74 174.82C151.241 175.338 151.93 175.64 152.657 175.661C153.383 175.683 154.089 175.42 154.62 174.933C154.906 174.667 155.13 174.344 155.278 173.986C155.425 173.628 155.492 173.243 155.474 172.857Z" fill="black"/>
<path d="M128.579 163.798C128.079 163.28 127.39 162.978 126.663 162.957C125.936 162.936 125.23 163.198 124.7 163.686C124.172 164.177 123.864 164.853 123.842 165.566C123.821 166.279 124.088 166.972 124.585 167.493L128.109 171.161L132.103 167.466L128.579 163.798Z" fill="#3F3D56"/>
<path d="M135.337 170.833L131.91 167.265L127.916 170.96L131.343 174.527C131.843 175.045 132.532 175.348 133.259 175.369C133.986 175.39 134.692 175.128 135.222 174.64C135.75 174.149 136.058 173.473 136.08 172.759C136.101 172.046 135.834 171.353 135.337 170.833Z" fill="#6C63FF"/>
<path opacity="0.2" d="M136.076 172.564C136.012 173.207 135.713 173.806 135.234 174.249C134.704 174.737 133.998 174.999 133.271 174.978C132.544 174.957 131.855 174.655 131.355 174.137L128.12 170.77L127.916 170.96L131.343 174.527C131.843 175.045 132.532 175.348 133.259 175.369C133.986 175.39 134.692 175.128 135.222 174.64C135.508 174.374 135.733 174.051 135.88 173.693C136.027 173.335 136.094 172.95 136.076 172.564Z" fill="black"/>
<path d="M134.039 154.137C134.039 155.032 133.724 155.9 133.147 156.594C132.57 157.287 131.767 157.764 130.873 157.943C130.35 158.046 129.812 158.046 129.29 157.943C128.396 157.764 127.592 157.287 127.015 156.593C126.438 155.9 126.123 155.032 126.123 154.137C126.123 153.241 126.438 152.374 127.015 151.68C127.592 150.986 128.396 150.51 129.29 150.331C129.812 150.227 130.35 150.227 130.873 150.331C131.767 150.51 132.57 150.986 133.147 151.68C133.724 152.373 134.039 153.241 134.039 154.137Z" fill="#6C63FF"/>
<path opacity="0.2" d="M130.873 150.331V157.943C130.35 158.046 129.812 158.046 129.29 157.943V150.331C129.812 150.227 130.35 150.227 130.873 150.331Z" fill="black"/>
<path d="M135.83 138.617C135.83 139.512 135.515 140.38 134.938 141.074C134.361 141.767 133.557 142.244 132.663 142.423C132.141 142.526 131.603 142.526 131.08 142.423C130.186 142.244 129.383 141.767 128.806 141.073C128.229 140.38 127.914 139.512 127.914 138.617C127.914 137.721 128.229 136.854 128.806 136.16C129.383 135.466 130.186 134.99 131.08 134.811C131.603 134.707 132.141 134.707 132.663 134.811C133.557 134.99 134.361 135.466 134.938 136.16C135.515 136.853 135.83 137.721 135.83 138.617Z" fill="#6C63FF"/>
<path opacity="0.2" d="M132.663 134.811V142.423C132.141 142.526 131.603 142.526 131.08 142.423V134.811C131.603 134.707 132.141 134.707 132.663 134.811Z" fill="black"/>
<path d="M135.83 160.872C135.83 161.767 135.515 162.635 134.938 163.329C134.361 164.022 133.557 164.499 132.663 164.678C132.141 164.782 131.603 164.782 131.08 164.678C130.186 164.499 129.383 164.022 128.806 163.328C128.229 162.635 127.914 161.767 127.914 160.872C127.914 159.976 128.229 159.109 128.806 158.415C129.383 157.722 130.186 157.245 131.08 157.066C131.603 156.962 132.141 156.962 132.663 157.066C133.557 157.245 134.361 157.721 134.938 158.415C135.515 159.109 135.83 159.976 135.83 160.872Z" fill="#6C63FF"/>
<path opacity="0.2" d="M132.663 157.066V164.678C132.141 164.782 131.603 164.782 131.08 164.678V157.066C131.603 156.962 132.141 156.962 132.663 157.066Z" fill="black"/>
<path d="M145.678 171.707C145.678 172.602 145.363 173.47 144.786 174.163C144.209 174.857 143.405 175.334 142.511 175.513C141.989 175.616 141.451 175.616 140.928 175.513C140.034 175.333 139.231 174.857 138.654 174.163C138.077 173.47 137.762 172.602 137.762 171.706C137.762 170.811 138.077 169.943 138.654 169.25C139.231 168.556 140.034 168.08 140.928 167.9C141.451 167.797 141.989 167.797 142.511 167.9C143.405 168.079 144.209 168.556 144.786 169.25C145.363 169.943 145.678 170.811 145.678 171.707Z" fill="#6C63FF"/>
<path opacity="0.2" d="M142.511 167.9V175.513C141.989 175.616 141.451 175.616 140.928 175.513V167.9C141.451 167.797 141.989 167.797 142.511 167.9Z" fill="black"/>
<path d="M154.377 151.772C155.034 152.393 155.453 153.218 155.561 154.107C155.67 154.996 155.462 155.894 154.973 156.65C154.686 157.091 154.313 157.472 153.874 157.769C153.122 158.276 152.215 158.513 151.305 158.439C150.396 158.366 149.541 157.986 148.884 157.365C148.227 156.743 147.809 155.918 147.7 155.029C147.592 154.141 147.799 153.242 148.288 152.486C148.575 152.045 148.948 151.665 149.387 151.368C150.139 150.86 151.046 150.623 151.956 150.697C152.865 150.771 153.72 151.15 154.377 151.772Z" fill="#6C63FF"/>
<path opacity="0.2" d="M149.387 151.368L154.973 156.65C154.686 157.091 154.313 157.472 153.874 157.769L148.288 152.486C148.575 152.045 148.949 151.665 149.387 151.368Z" fill="black"/>
<path d="M155.571 160.264C156.228 160.885 156.646 161.71 156.755 162.599C156.863 163.488 156.655 164.387 156.166 165.142C155.88 165.583 155.506 165.964 155.068 166.261C154.316 166.768 153.408 167.005 152.499 166.931C151.59 166.858 150.734 166.478 150.077 165.857C149.42 165.235 149.002 164.41 148.894 163.522C148.785 162.633 148.993 161.734 149.482 160.978C149.769 160.537 150.142 160.157 150.581 159.86C151.333 159.352 152.24 159.115 153.149 159.189C154.059 159.263 154.914 159.642 155.571 160.264Z" fill="#6C63FF"/>
<path opacity="0.2" d="M150.581 159.86L156.166 165.142C155.88 165.583 155.506 165.964 155.068 166.261L149.482 160.978C149.769 160.537 150.142 160.157 150.581 159.86Z" fill="black"/>
<path d="M120.059 162.314C120.716 162.935 121.134 163.76 121.242 164.649C121.351 165.538 121.143 166.436 120.654 167.192C120.367 167.633 119.994 168.014 119.555 168.311C118.803 168.818 117.896 169.055 116.987 168.981C116.077 168.907 115.222 168.528 114.565 167.907C113.908 167.285 113.49 166.46 113.382 165.571C113.273 164.682 113.481 163.784 113.97 163.028C114.256 162.587 114.63 162.207 115.068 161.909C115.82 161.402 116.728 161.165 117.637 161.239C118.546 161.313 119.402 161.692 120.059 162.314Z" fill="#6C63FF"/>
<path opacity="0.2" d="M115.068 161.909L120.654 167.192C120.367 167.633 119.994 168.014 119.555 168.311L113.97 163.028C114.256 162.587 114.63 162.207 115.068 161.909Z" fill="black"/>
<path opacity="0.2" d="M107.283 92.5653H105.791V103.4H107.283V92.5653Z" fill="black"/>
<path opacity="0.2" d="M115.938 92.5653H114.445V103.4H115.938V92.5653Z" fill="black"/>
<path opacity="0.2" d="M133.246 92.5653H131.754V103.4H133.246V92.5653Z" fill="black"/>
<path opacity="0.2" d="M141.9 92.5653H140.408V103.4H141.9V92.5653Z" fill="black"/>
<path opacity="0.2" d="M150.555 92.5653H149.062V103.4H150.555V92.5653Z" fill="black"/>
<path opacity="0.2" d="M159.209 92.5653H157.717V103.4H159.209V92.5653Z" fill="black"/>
</svg>
