<svg width="22" height="22" viewBox="0 0 22 22" fill="none" xmlns="http://www.w3.org/2000/svg">
<path d="M21.4851 18.6178L15.6342 12.7657C16.3242 11.6292 16.7342 10.3453 16.8312 9.01936C16.9272 7.69346 16.7082 6.36356 16.1902 5.13896C15.6732 3.91446 14.8722 2.83026 13.8542 1.97546C12.8362 1.12056 11.6302 0.519559 10.3342 0.221759C8.98316 -0.0946406 7.57515 -0.0721405 6.23515 0.28716C4.89515 0.646559 3.66515 1.33146 2.65416 2.28136C1.64315 3.23116 0.882159 4.41636 0.439159 5.73126C-0.00284132 7.04616 -0.11384 8.45006 0.11816 9.81796C0.34916 11.1859 0.915163 12.4753 1.76516 13.5717C2.61516 14.668 3.72316 15.5371 4.99116 16.1017C6.25816 16.6662 7.64515 16.9089 9.02915 16.8077C10.4122 16.7066 11.7502 16.2648 12.9212 15.5218L18.7472 21.3488C18.8802 21.4807 19.0602 21.5548 19.2472 21.5548C19.4342 21.5548 19.6142 21.4807 19.7472 21.3488L21.4792 19.6178C21.6112 19.4848 21.6852 19.3051 21.6852 19.1178C21.6852 18.9305 21.6112 18.7508 21.4792 18.6178H21.4851ZM12.8962 9.31766C12.7342 10.1237 12.3571 10.8707 11.8041 11.4791C11.2511 12.0875 10.5442 12.5348 9.75715 12.7728C8.97015 13.0109 8.13316 13.0309 7.33616 12.8309C6.53916 12.631 5.81015 12.2185 5.22915 11.6373C4.64715 11.0562 4.23516 10.3284 4.03416 9.53106C3.83416 8.73376 3.85315 7.89696 4.09115 7.10996C4.32915 6.32296 4.77516 5.61526 5.38316 5.06206C5.99116 4.50896 6.73815 4.13106 7.54415 3.96886C7.84115 3.91146 8.14216 3.88246 8.44416 3.88266C9.11616 3.88376 9.77915 4.03386 10.3861 4.32186C10.9931 4.60986 11.5292 5.02876 11.9551 5.54846C12.3811 6.06806 12.6862 6.67546 12.8492 7.32726C13.0122 7.97896 13.0292 8.65876 12.8982 9.31766H12.8962Z" fill="#E0E7FF"/>
</svg>
