<svg width="36" height="36" viewBox="0 0 36 36" fill="none" xmlns="http://www.w3.org/2000/svg">
<path d="M9.99995 18.8C10.2121 18.8 10.4156 18.7157 10.5656 18.5657C10.7157 18.4157 10.8 18.2122 10.8 18C10.8 17.7878 10.7157 17.5844 10.5656 17.4343C10.4156 17.2843 10.2121 17.2 9.99995 17.2C9.78778 17.2 9.5843 17.2843 9.43427 17.4343C9.28424 17.5844 9.19995 17.7878 9.19995 18C9.19995 18.2122 9.28424 18.4157 9.43427 18.5657C9.5843 18.7157 9.78778 18.8 9.99995 18.8ZM18 18.8C18.2121 18.8 18.4156 18.7157 18.5656 18.5657C18.7157 18.4157 18.8 18.2122 18.8 18C18.8 17.7878 18.7157 17.5844 18.5656 17.4343C18.4156 17.2843 18.2121 17.2 18 17.2C17.7878 17.2 17.5843 17.2843 17.4343 17.4343C17.2842 17.5844 17.2 17.7878 17.2 18C17.2 18.2122 17.2842 18.4157 17.4343 18.5657C17.5843 18.7157 17.7878 18.8 18 18.8ZM26 18.8C26.2121 18.8 26.4156 18.7157 26.5656 18.5657C26.7157 18.4157 26.8 18.2122 26.8 18C26.8 17.7878 26.7157 17.5844 26.5656 17.4343C26.4156 17.2843 26.2121 17.2 26 17.2C25.7878 17.2 25.5843 17.2843 25.4343 17.4343C25.2842 17.5844 25.2 17.7878 25.2 18C25.2 18.2122 25.2842 18.4157 25.4343 18.5657C25.5843 18.7157 25.7878 18.8 26 18.8Z" fill="#8667F2" stroke="#8667F2" stroke-width="3" stroke-linecap="round" stroke-linejoin="round"/>
<path d="M18 34C26.8368 34 34 26.8368 34 18C34 9.1632 26.8368 2 18 2C9.1632 2 2 9.1632 2 18C2 26.8368 9.1632 34 18 34Z" stroke="#8667F2" stroke-width="3" stroke-linecap="round" stroke-linejoin="round"/>
</svg>
