<svg width="27" height="27" viewBox="0 0 27 27" fill="none" xmlns="http://www.w3.org/2000/svg">
<path d="M14.2667 17.7333L17.7333 14.2667C17.9778 14.0222 18.1 13.7111 18.1 13.3333C18.1 12.9556 17.9778 12.6444 17.7333 12.4L14.2333 8.9C13.9889 8.65556 13.6831 8.53867 13.316 8.54933C12.9489 8.56 12.6436 8.688 12.4 8.93333C12.1556 9.17778 12.0333 9.48889 12.0333 9.86667C12.0333 10.2444 12.1556 10.5556 12.4 10.8L13.6 12H9.3C8.92222 12 8.61111 12.128 8.36667 12.384C8.12222 12.64 8 12.9564 8 13.3333C8 13.7111 8.128 14.028 8.384 14.284C8.64 14.54 8.95644 14.6676 9.33333 14.6667H13.6L12.3667 15.9C12.1222 16.1444 12.0053 16.4502 12.016 16.8173C12.0267 17.1844 12.1547 17.4898 12.4 17.7333C12.6444 17.9778 12.9556 18.1 13.3333 18.1C13.7111 18.1 14.0222 17.9778 14.2667 17.7333ZM13.3333 26.6667C11.4889 26.6667 9.75556 26.3164 8.13333 25.616C6.51111 24.9156 5.1 23.9658 3.9 22.7667C2.7 21.5667 1.75022 20.1556 1.05067 18.5333C0.351111 16.9111 0.000888889 15.1778 0 13.3333C0 11.4889 0.350222 9.75556 1.05067 8.13333C1.75111 6.51111 2.70089 5.1 3.9 3.9C5.1 2.7 6.51111 1.75022 8.13333 1.05067C9.75556 0.351111 11.4889 0.000888889 13.3333 0C15.1778 0 16.9111 0.350222 18.5333 1.05067C20.1556 1.75111 21.5667 2.70089 22.7667 3.9C23.9667 5.1 24.9169 6.51111 25.6173 8.13333C26.3178 9.75556 26.6676 11.4889 26.6667 13.3333C26.6667 15.1778 26.3164 16.9111 25.616 18.5333C24.9156 20.1556 23.9658 21.5667 22.7667 22.7667C21.5667 23.9667 20.1556 24.9169 18.5333 25.6173C16.9111 26.3178 15.1778 26.6676 13.3333 26.6667Z" fill="white"/>
</svg>
